<svg width="1440" height="6863" viewBox="0 0 1440 6863" fill="none" xmlns="http://www.w3.org/2000/svg">
<path d="M207.25 1C267.291 260.886 305.5 843.031 -22 1092.52" stroke="#F1DED0" stroke-opacity="0.29" stroke-width="0.5" stroke-linecap="round"/>
<path d="M534.75 1C507.458 451.469 361.175 1362.8 -5.62488 1404.39" stroke="#F1DED0" stroke-opacity="0.29" stroke-width="0.5" stroke-linecap="round"/>
<path d="M780.374 1C736.708 486.121 518.375 1529.13 -5.62488 1820.2" stroke="#F1DED0" stroke-opacity="0.29" stroke-width="0.5" stroke-linecap="round"/>
<path d="M1075.12 1C911.374 590.075 560.95 1768.23 469.25 1768.23C377.55 1768.23 103.542 2773.12 -22 3275.56" stroke="#F1DED0" stroke-opacity="0.29" stroke-width="0.5" stroke-linecap="round"/>
<path d="M1402.62 1C583.875 1577.64 -719.574 5157.14 616.625 6861.99" stroke="#F1DED0" stroke-opacity="0.29" stroke-width="0.5" stroke-linecap="round"/>
<path d="M1441 623.73C753.251 2061.77 -212.874 4563.6 1424.63 3066.66" stroke="#F1DED0" stroke-opacity="0.29" stroke-width="0.5" stroke-linecap="round"/>
<path d="M1424.63 1143.51C1037.08 1957.82 343.875 3846.32 1424.63 2650.85" stroke="#F1DED0" stroke-opacity="0.29" stroke-width="0.5" stroke-linecap="round"/>
</svg>
